<?xml version="1.0" encoding="utf-8"?>
<svg xmlns="http://www.w3.org/2000/svg" viewBox="0 0 64 64" width="512" height="512">
  <linearGradient id="QNyXmetER9Pa8BpimsW7Ta" x1="44" x2="44" y1="4.191" y2="53.767" gradientUnits="userSpaceOnUse">
    <stop offset="0" stop-color="#1a6dff" />
    <stop offset="1" stop-color="#c822ff" />
  </linearGradient>
  <path fill="url(#QNyXmetER9Pa8BpimsW7Ta)" d="M46.7,46.7l-4.8-4.4l-1.3,1.5l4.8,4.3l-4.8,4.3l1.3,1.5l4.8-4.2c0.4-0.4,0.7-0.9,0.7-1.5 C47.4,47.6,47.2,47.1,46.7,46.7z" />
  <linearGradient id="QNyXmetER9Pa8BpimsW7Tb" x1="32" x2="32" y1="4.191" y2="53.767" gradientUnits="userSpaceOnUse">
    <stop offset="0" stop-color="#1a6dff" />
    <stop offset="1" stop-color="#c822ff" />
  </linearGradient>
  <path fill="url(#QNyXmetER9Pa8BpimsW7Tb)" d="M45,38.1V15.8c0-0.8-0.3-1.6-0.9-2.1l-6.8-6.8C36.7,6.3,36,6,35.2,6H13c-1.7,0-3,1.3-3,3v35 v1v4c0,1.7,1.3,3,3,3h21.8c1.5,3.5,5.1,6,9.2,6c5.5,0,10-4.5,10-10C54,42.8,50,38.6,45,38.1z M37,9.4l4.6,4.6H38c-0.6,0-1-0.4-1-1 V9.4z M13,50c-0.6,0-1-0.4-1-1v-1.2c0.3,0.1,0.6,0.2,1,0.2h21c0,0.7,0.1,1.4,0.2,2H13z M34.2,46H13c-0.6,0-1-0.4-1-1v-1V9 c0-0.6,0.4-1,1-1h22v5c0,1.7,1.3,3,3,3h5v22.1C38.6,38.5,35.1,41.8,34.2,46z M44,56c-4.4,0-8-3.6-8-8c0-4.4,3.6-8,8-8s8,3.6,8,8 C52,52.4,48.4,56,44,56z" />
  <linearGradient id="QNyXmetER9Pa8BpimsW7Tc" x1="23" x2="23" y1="4.191" y2="53.767" gradientUnits="userSpaceOnUse">
    <stop offset="0" stop-color="#1a6dff" />
    <stop offset="1" stop-color="#c822ff" />
  </linearGradient>
  <path fill="url(#QNyXmetER9Pa8BpimsW7Tc)" d="M30,25c0-2.163-1.012-4.195-2.69-5.511C27.737,18.753,28,17.91,28,17v-2c0-2.757-2.243-5-5-5 s-5,2.243-5,5v2c0,0.91,0.263,1.753,0.689,2.489C17.012,20.805,16,22.838,16,25v2h14V25z M20,15c0-1.654,1.346-3,3-3s3,1.346,3,3v2 c0,1.654-1.346,3-3,3s-3-1.346-3-3V15z M18,25c0-1.585,0.763-3.072,2.02-4.009C20.855,21.616,21.879,22,23,22 s2.146-0.384,2.98-1.009C27.237,21.928,28,23.414,28,25H18z" />
  <linearGradient id="QNyXmetER9Pa8BpimsW7Td" x1="21.5" x2="21.5" y1="4.191" y2="53.767" gradientUnits="userSpaceOnUse">
    <stop offset="0" stop-color="#1a6dff" />
    <stop offset="1" stop-color="#c822ff" />
  </linearGradient>
  <rect width="11" height="2" x="16" y="30" fill="url(#QNyXmetER9Pa8BpimsW7Td)" />
  <linearGradient id="QNyXmetER9Pa8BpimsW7Te" x1="21.5" x2="21.5" y1="4.191" y2="53.767" gradientUnits="userSpaceOnUse">
    <stop offset="0" stop-color="#1a6dff" />
    <stop offset="1" stop-color="#c822ff" />
  </linearGradient>
  <rect width="11" height="2" x="16" y="34" fill="url(#QNyXmetER9Pa8BpimsW7Te)" />
  <linearGradient id="QNyXmetER9Pa8BpimsW7Tf" x1="34" x2="34" y1="4.191" y2="53.767" gradientUnits="userSpaceOnUse">
    <stop offset="0" stop-color="#1a6dff" />
    <stop offset="1" stop-color="#c822ff" />
  </linearGradient>
  <rect width="10" height="2" x="29" y="30" fill="url(#QNyXmetER9Pa8BpimsW7Tf)" />
  <linearGradient id="QNyXmetER9Pa8BpimsW7Tg" x1="34" x2="34" y1="4.191" y2="53.767" gradientUnits="userSpaceOnUse">
    <stop offset="0" stop-color="#1a6dff" />
    <stop offset="1" stop-color="#c822ff" />
  </linearGradient>
  <rect width="10" height="2" x="29" y="34" fill="url(#QNyXmetER9Pa8BpimsW7Tg)" />
  <linearGradient id="QNyXmetER9Pa8BpimsW7Th" x1="36" x2="36" y1="4.191" y2="53.767" gradientUnits="userSpaceOnUse">
    <stop offset="0" stop-color="#1a6dff" />
    <stop offset="1" stop-color="#c822ff" />
  </linearGradient>
  <rect width="6" height="2" x="33" y="19" fill="url(#QNyXmetER9Pa8BpimsW7Th)" />
  <linearGradient id="QNyXmetER9Pa8BpimsW7Ti" x1="34.5" x2="34.5" y1="4.191" y2="53.767" gradientUnits="userSpaceOnUse">
    <stop offset="0" stop-color="#1a6dff" />
    <stop offset="1" stop-color="#c822ff" />
  </linearGradient>
  <rect width="3" height="2" x="33" y="23" fill="url(#QNyXmetER9Pa8BpimsW7Ti)" />
  <linearGradient id="QNyXmetER9Pa8BpimsW7Tj" x1="21.5" x2="21.5" y1="36.777" y2="43.16" gradientUnits="userSpaceOnUse">
    <stop offset="0" stop-color="#6dc7ff" />
    <stop offset="1" stop-color="#e6abff" />
  </linearGradient>
  <path fill="url(#QNyXmetER9Pa8BpimsW7Tj)" d="M26,43h-9c-0.552,0-1-0.448-1-1v-3c0-0.552,0.448-1,1-1h9c0.552,0,1,0.448,1,1v3C27,42.552,26.552,43,26,43z" />
</svg>